<svg xmlns="http://www.w3.org/2000/svg" width="60" height="60" fill="none" viewBox="0 0 60 60"><circle cx="30" cy="30" r="30" fill="#5956E9"/><g clip-path="url(#clip0_3_901)"><path fill="#fff" d="M21 21H39C39.2652 21 39.5196 21.1054 39.7071 21.2929C39.8946 21.4804 40 21.7348 40 22V38C40 38.2652 39.8946 38.5196 39.7071 38.7071C39.5196 38.8946 39.2652 39 39 39H21C20.7348 39 20.4804 38.8946 20.2929 38.7071C20.1054 38.5196 20 38.2652 20 38V22C20 21.7348 20.1054 21.4804 20.2929 21.2929C20.4804 21.1054 20.7348 21 21 21V21ZM30.06 29.683L23.648 24.238L22.353 25.762L30.073 32.317L37.654 25.757L36.346 24.244L30.061 29.683H30.06Z"/></g><defs><clipPath id="clip0_3_901"><rect width="24" height="24" fill="#fff" transform="translate(18 18)"/></clipPath></defs></svg>