<svg xmlns="http://www.w3.org/2000/svg" width="60" height="60" fill="none" viewBox="0 0 60 60"><circle cx="30" cy="30" r="30" fill="#5956E9"/><g clip-path="url(#clip0_3_908)"><path fill="#fff" d="M39 34.42V37.956C39.0001 38.2092 38.9042 38.453 38.7316 38.6382C38.559 38.8234 38.3226 38.9363 38.07 38.954C37.633 38.984 37.276 39 37 39C28.163 39 21 31.837 21 23C21 22.724 21.015 22.367 21.046 21.93C21.0637 21.6774 21.1766 21.441 21.3618 21.2684C21.547 21.0958 21.7908 20.9999 22.044 21H25.58C25.704 20.9999 25.8237 21.0459 25.9157 21.129C26.0078 21.2122 26.0656 21.3266 26.078 21.45C26.101 21.68 26.122 21.863 26.142 22.002C26.3407 23.3889 26.748 24.7378 27.35 26.003C27.445 26.203 27.383 26.442 27.203 26.57L25.045 28.112C26.3645 31.1865 28.8145 33.6365 31.889 34.956L33.429 32.802C33.4919 32.714 33.5838 32.6509 33.6885 32.6237C33.7932 32.5964 33.9042 32.6068 34.002 32.653C35.267 33.2539 36.6156 33.6601 38.002 33.858C38.141 33.878 38.324 33.9 38.552 33.922C38.6752 33.9346 38.7894 33.9926 38.8724 34.0846C38.9553 34.1766 39.0012 34.2961 39.001 34.42H39Z"/></g><defs><clipPath id="clip0_3_908"><rect width="24" height="24" fill="#fff" transform="translate(18 18)"/></clipPath></defs></svg>