<svg xmlns="http://www.w3.org/2000/svg" width="26" height="24" fill="none" viewBox="0 0 26 24"><path fill="#231F20" d="M8.75332 19.8457C10.3552 19.8948 11.9516 19.6493 13.4482 19.1236C14.9448 18.598 16.3111 17.8029 17.4665 16.7853C18.6218 15.7678 19.5428 14.5484 20.1749 13.1992C20.807 11.8501 21.1374 10.3986 21.1467 8.93052C21.8808 8.0984 22.4259 7.14026 22.75 6.11241C22.7742 6.0312 22.7722 5.94532 22.7444 5.86511C22.7165 5.78489 22.6639 5.71376 22.5929 5.66029C22.522 5.60681 22.4356 5.57327 22.3443 5.5637C22.253 5.55413 22.1606 5.56894 22.0783 5.60634C21.6943 5.77568 21.2619 5.83038 20.8421 5.76273C20.4223 5.69509 20.0362 5.50851 19.7383 5.22927C19.358 4.84781 18.898 4.54016 18.3855 4.32453C17.873 4.1089 17.3185 3.98969 16.7548 3.97396C16.1911 3.95823 15.6296 4.0463 15.1038 4.23295C14.5779 4.4196 14.0983 4.70104 13.6933 5.06058C13.1389 5.55242 12.7327 6.16728 12.5144 6.84539C12.2961 7.52351 12.2731 8.24182 12.4475 8.93052C8.81832 9.12898 6.32665 7.55123 4.33332 5.38804C4.27343 5.32592 4.1951 5.28112 4.10788 5.25911C4.02066 5.2371 3.92833 5.23882 3.84216 5.26408C3.75599 5.28934 3.67972 5.33703 3.62266 5.40133C3.56559 5.46564 3.53021 5.54377 3.52082 5.62619C3.14108 7.55562 3.41501 9.54529 4.30582 11.328C5.19663 13.1106 6.66166 14.6009 8.50415 15.5987C7.26876 16.8965 5.53388 17.707 3.66165 17.8611C3.56135 17.8764 3.46875 17.92 3.39683 17.9858C3.32491 18.0516 3.27725 18.1364 3.26054 18.2283C3.24382 18.3201 3.25888 18.4145 3.30361 18.4981C3.34834 18.5817 3.4205 18.6505 3.50998 18.6947C5.1388 19.4402 6.93248 19.834 8.75332 19.8457Z"/></svg>